# xmcd CD database file
#
# Track frame offsets:
#	150
#	12862
#	31891
#	44100
#	59494
#	78017
#	95895
#	121439
#	139427
#	160207
#	177331
#	193563
#
# Disc length: 2845 seconds
#
# Revision: 1
# Processed by: cddbd v1.5.1PL0 Copyright (c) Steve Scherf et al.
# Submitted via: FreeDB 13.2
#
DISCID=a70b1b0c
DTITLE=Mike und Mike - feeling pure
DYEAR=2005
DGENRE=Acoustic
TTITLE0=not a game
TTITLE1=hoarfrost
TTITLE2=i like your face
TTITLE3=fear
TTITLE4=feeling pure
TTITLE5=follow your dreams
TTITLE6=i need my freedom in love
TTITLE7=man on stage
TTITLE8=until you set me free
TTITLE9=stones (in my head)
TTITLE10=stuipid
TTITLE11=the woman i love
EXTD=@ 2005 Mike Schwarzer
EXTT0=
EXTT1=
EXTT2=
EXTT3=
EXTT4=
EXTT5=
EXTT6=
EXTT7=
EXTT8=
EXTT9=
EXTT10=
EXTT11=
PLAYORDER=
